<?xml version="1.0" encoding="UTF-8"?><svg id="Layer_2" xmlns="http://www.w3.org/2000/svg" viewBox="0 0 1939.69 615.57"><defs><style>.cls-1{fill:none;}.cls-1,.cls-2{stroke-width:0px;}</style></defs><g id="Layer_1-2"><rect class="cls-1" width="1939.69" height="615.57"/><path class="cls-2" d="m860.37,234.59c-25.27-.41-50.55-.11-75.82-.13-10.95,0-21.91,0-33.6,0,0,49.4,0,96.11,0,143.98,10.44,0,22.4.05,32.73.05v-37.05h70.42l29.09,37.05c12.35,0,24.83,0,37.48,0l-32.94-42.97c1.28-.48,3.65-1.4,5.26-2.11,12.84-5.91,21.21-15.89,25.24-29.88,1.41-4.9,2.21-9.61,2.39-14.18.28-5.89-.54-12.03-2.39-18.47-6.79-23.55-25.83-35.76-57.86-36.28Zm9.59,75.22c-27.57,0-55.82.4-85.66.4v-46.94c28.77,0,56.79-.8,84.72.38,11.92.5,18.19,9.82,18.58,21.94.4,12.57-4.33,24.22-17.64,24.22Zm264.64-75.31h46.79v143.99c-12.38,0-21.56,0-33.17,0v-106.01c-1.47,2.21-3.94,6.39-4.5,7.35-20.32,32.57-40.64,65.14-61.29,98.24-8.33,0-16.4,0-25.23,0-20.47-32.57-40.98-65.2-61.49-97.84-1.13-1.77-2.97-4.92-4.4-6.89,0,31.59,0,72.04,0,105.16h-32.4c0-47.32,0-95.76,0-144h44.93c20.78,33.84,42.57,69.33,65.56,106.77,22.58-36.98,43.88-71.86,65.19-106.76Zm395.81.81c-33.97-1.23-68.02-.55-102.04-.54-2.68,0-5.4.25-8.41.25,0,47.08,0,95.16,0,143.48,41.27,0,81.28,3.14,120.56-.89,38.7-3.96,58.1-36.62,54.81-80.85-2.6-34.81-28.36-60.12-64.92-61.45Zm-14.53,116.81c-20.4.3-40.82.05-62.69.05v-88.41s54.41-1.24,80.53.5c14.2.95,23.74,11.09,27.85,25.77,10.37,37.08-7.3,61.53-45.69,62.09Zm-237.85-117.61c-26.02,47.89-51.58,94.95-78.22,143.99h35.21c6.26-10.29,12.56-20.65,18.53-30.48h92.14c6.56,10.15,13.23,20.52,19.66,30.48,11.04,0,21.34,0,35.1,0-27.22-49.75-53.28-97.4-78.77-143.99h-43.65Zm-11.57,86c11.89-21.44,21.42-38.62,33.1-59.66,12.25,21.34,22.69,39.52,34.26,59.66h-67.36Zm457.57-86h-43.65c-26.02,47.89-51.58,94.95-78.22,143.99h35.21c6.26-10.29,12.56-20.65,18.53-30.48h92.14c6.56,10.15,13.23,20.52,19.66,30.48,11.04,0,21.34,0,35.1,0-27.22-49.75-53.28-97.4-78.77-143.99Zm-55.21,86c11.89-21.44,21.42-38.62,33.1-59.66,12.25,21.34,22.69,39.52,34.26,59.66h-67.36Zm-1060.06-86l-78.22,143.99h35.21c6.26-10.29,12.56-20.65,18.53-30.48h92.14c6.56,10.15,13.23,20.52,19.66,30.48,11.04,0,21.34,0,35.1,0l-78.77-143.99h-43.65Zm-11.57,86c11.89-21.44,21.42-38.62,33.1-59.66,12.25,21.34,22.69,39.52,34.26,59.66h-67.36Z"/><path class="cls-2" d="m506.54,421.48c-66.17,12.81-192.9,38.2-192.9,38.2V191.89c31.34-14.52,62.01-28.74,97.1-45-8.97,106.99,23.03,196.69,95.8,274.59Zm-353.94,47.21c32.35-15.62,64.44-31.11,97.99-47.31-23.58-88.19-11.59-170.47,41.08-249.51-103,53.11-164.48,189.08-139.07,296.82Z"/></g></svg>